# xmcd
#
# Track frame offsets:
#	150
#	16480
#	30252
#	43886
#	57238
#	70269
#	84739
#	96154
#	112729
#	123102
#	134101
#	148162
#
# Disc length: 2122 seconds
#
# Revision: 0
# Processed by: cddbd v1.4PL0 Copyright (c) Steve Scherf et al.
# Submitted via: audiograbber 1.80.04
#
DISCID=a608480c
DTITLE=NADA - I SUCCESSI
DYEAR=1900
DGENRE=
TTITLE0=SENZA TE
TTITLE1=MA CHE FREDDO FA
TTITLE2=DAI VIENI QUI
TTITLE3=CUORE STANCO
TTITLE4=TU TORNERAI VICINO A ME
TTITLE5=PER TE PER ME
TTITLE6=BIANCA NEVE
TTITLE7=SE TU RAGAZZO MIO
TTITLE8=UNA RONDINE BIANCA
TTITLE9=UNA DONNA SOLA
TTITLE10=LES BYCICLETTES DE BELSINE
TTITLE11=YELLOW SUBMARINE
EXTD=
EXTT0=
EXTT1=
EXTT2=
EXTT3=
EXTT4=
EXTT5=
EXTT6=
EXTT7=
EXTT8=
EXTT9=
EXTT10=
EXTT11=
PLAYORDER=
